<?xml version="1.0" standalone="no"?>
<!DOCTYPE svg PUBLIC "-//W3C//DTD SVG 20010904//EN"
 "http://www.w3.org/TR/2001/REC-SVG-20010904/DTD/svg10.dtd">
<svg version="1.0" xmlns="http://www.w3.org/2000/svg"
 width="512.000000pt" height="512.000000pt" viewBox="0 0 512.000000 512.000000"
 preserveAspectRatio="xMidYMid meet">

<g transform="translate(0.000000,512.000000) scale(0.100000,-0.100000)"
fill="#000000" stroke="none">
<path d="M2383 5109 c-868 -62 -1638 -554 -2063 -1318 -436 -787 -417 -1777
49 -2545 203 -336 490 -631 811 -838 850 -547 1951 -539 2790 20 624 415 1024
1056 1126 1803 21 151 23 479 5 624 -104 821 -560 1511 -1271 1924 -423 245
-952 366 -1447 330z m377 -960 c267 -73 465 -272 542 -545 31 -110 31 -277 0
-387 -63 -222 -205 -394 -407 -492 -116 -57 -203 -77 -335 -78 -389 -1 -710
286 -760 677 -18 146 10 300 81 437 114 219 325 370 574 410 75 12 221 2 305
-22z m44 -1675 c470 -74 886 -383 1105 -820 86 -173 140 -377 149 -568 4 -108
3 -120 -13 -133 -16 -11 -274 -13 -1484 -13 -1349 0 -1466 1 -1483 17 -25 22
-24 135 2 286 108 633 601 1123 1240 1232 109 19 362 18 484 -1z"/>
</g>
</svg>
